<svg width="246" height="53" viewBox="0 0 246 53" fill="none" xmlns="http://www.w3.org/2000/svg">
<path d="M79.134 16.524C80.542 15.3507 81.664 14.3753 82.5 13.598C83.336 12.806 84.0327 11.9847 84.59 11.134C85.1473 10.2833 85.426 9.44733 85.426 8.626C85.426 7.878 85.25 7.29133 84.898 6.866C84.546 6.44067 84.0033 6.228 83.27 6.228C82.5367 6.228 81.972 6.47733 81.576 6.976C81.18 7.46 80.9747 8.12733 80.96 8.978H77.968C78.0267 7.218 78.5473 5.88333 79.53 4.974C80.5273 4.06467 81.7887 3.61 83.314 3.61C84.986 3.61 86.2693 4.05733 87.164 4.952C88.0587 5.832 88.506 6.998 88.506 8.45C88.506 9.594 88.198 10.6867 87.582 11.728C86.966 12.7693 86.262 13.6787 85.47 14.456C84.678 15.2187 83.644 16.1427 82.368 17.228H88.858V19.78H77.99V17.492L79.134 16.524ZM101.579 6.624H94.4508V10.386C94.7588 10.0047 95.1988 9.69667 95.7708 9.462C96.3428 9.21267 96.9515 9.088 97.5968 9.088C98.7701 9.088 99.7308 9.34467 100.479 9.858C101.227 10.3713 101.769 11.0313 102.107 11.838C102.444 12.63 102.613 13.4807 102.613 14.39C102.613 16.0767 102.129 17.4333 101.161 18.46C100.207 19.4867 98.8435 20 97.0688 20C95.3968 20 94.0621 19.582 93.0648 18.746C92.0675 17.91 91.5028 16.8173 91.3708 15.468H94.3628C94.4948 16.0547 94.7881 16.524 95.2428 16.876C95.7121 17.228 96.3061 17.404 97.0248 17.404C97.8901 17.404 98.5428 17.1327 98.9828 16.59C99.4228 16.0473 99.6428 15.3287 99.6428 14.434C99.6428 13.5247 99.4155 12.8353 98.9608 12.366C98.5208 11.882 97.8681 11.64 97.0028 11.64C96.3868 11.64 95.8735 11.794 95.4628 12.102C95.0521 12.41 94.7588 12.8207 94.5828 13.334H91.6348V3.918H101.579V6.624ZM104.957 11.772C104.957 9.23467 105.412 7.24733 106.321 5.81C107.245 4.37267 108.77 3.654 110.897 3.654C113.024 3.654 114.542 4.37267 115.451 5.81C116.375 7.24733 116.837 9.23467 116.837 11.772C116.837 14.324 116.375 16.326 115.451 17.778C114.542 19.23 113.024 19.956 110.897 19.956C108.77 19.956 107.245 19.23 106.321 17.778C105.412 16.326 104.957 14.324 104.957 11.772ZM113.801 11.772C113.801 10.6867 113.728 9.77733 113.581 9.044C113.449 8.296 113.17 7.68733 112.745 7.218C112.334 6.74867 111.718 6.514 110.897 6.514C110.076 6.514 109.452 6.74867 109.027 7.218C108.616 7.68733 108.338 8.296 108.191 9.044C108.059 9.77733 107.993 10.6867 107.993 11.772C107.993 12.8867 108.059 13.8253 108.191 14.588C108.323 15.336 108.602 15.9447 109.027 16.414C109.452 16.8687 110.076 17.096 110.897 17.096C111.718 17.096 112.342 16.8687 112.767 16.414C113.192 15.9447 113.471 15.336 113.603 14.588C113.735 13.8253 113.801 12.8867 113.801 11.772ZM139.91 7.636C141.406 7.636 142.609 8.098 143.518 9.022C144.442 9.93133 144.904 11.2073 144.904 12.85V20H141.824V13.268C141.824 12.3147 141.582 11.5887 141.098 11.09C140.614 10.5767 139.954 10.32 139.118 10.32C138.282 10.32 137.615 10.5767 137.116 11.09C136.632 11.5887 136.39 12.3147 136.39 13.268V20H133.31V13.268C133.31 12.3147 133.068 11.5887 132.584 11.09C132.1 10.5767 131.44 10.32 130.604 10.32C129.753 10.32 129.079 10.5767 128.58 11.09C128.096 11.5887 127.854 12.3147 127.854 13.268V20H124.774V7.812H127.854V9.286C128.25 8.77267 128.756 8.36933 129.372 8.076C130.003 7.78267 130.692 7.636 131.44 7.636C132.393 7.636 133.244 7.84133 133.992 8.252C134.74 8.648 135.319 9.22 135.73 9.968C136.126 9.264 136.698 8.69933 137.446 8.274C138.209 7.84867 139.03 7.636 139.91 7.636ZM148.443 16.524C149.851 15.3507 150.973 14.3753 151.809 13.598C152.645 12.806 153.341 11.9847 153.899 11.134C154.456 10.2833 154.735 9.44733 154.735 8.626C154.735 7.878 154.559 7.29133 154.207 6.866C153.855 6.44067 153.312 6.228 152.579 6.228C151.845 6.228 151.281 6.47733 150.885 6.976C150.489 7.46 150.283 8.12733 150.269 8.978H147.277C147.335 7.218 147.856 5.88333 148.839 4.974C149.836 4.06467 151.097 3.61 152.623 3.61C154.295 3.61 155.578 4.05733 156.473 4.952C157.367 5.832 157.815 6.998 157.815 8.45C157.815 9.594 157.507 10.6867 156.891 11.728C156.275 12.7693 155.571 13.6787 154.779 14.456C153.987 15.2187 152.953 16.1427 151.677 17.228H158.167V19.78H147.299V17.492L148.443 16.524Z" fill="#1E1E1E"/>
<path d="M84.59 35.935V37.045H81.74V46.39H80.375V37.045H77.51V35.935H84.59ZM89.8552 46.525C89.0852 46.525 88.3852 46.35 87.7552 46C87.1352 45.65 86.6452 45.155 86.2852 44.515C85.9352 43.865 85.7602 43.115 85.7602 42.265C85.7602 41.425 85.9402 40.685 86.3002 40.045C86.6702 39.395 87.1702 38.9 87.8002 38.56C88.4302 38.21 89.1352 38.035 89.9152 38.035C90.6952 38.035 91.4002 38.21 92.0302 38.56C92.6602 38.9 93.1552 39.39 93.5152 40.03C93.8852 40.67 94.0702 41.415 94.0702 42.265C94.0702 43.115 93.8802 43.865 93.5002 44.515C93.1302 45.155 92.6252 45.65 91.9852 46C91.3452 46.35 90.6352 46.525 89.8552 46.525ZM89.8552 45.325C90.3452 45.325 90.8052 45.21 91.2352 44.98C91.6652 44.75 92.0102 44.405 92.2702 43.945C92.5402 43.485 92.6752 42.925 92.6752 42.265C92.6752 41.605 92.5452 41.045 92.2852 40.585C92.0252 40.125 91.6852 39.785 91.2652 39.565C90.8452 39.335 90.3902 39.22 89.9002 39.22C89.4002 39.22 88.9402 39.335 88.5202 39.565C88.1102 39.785 87.7802 40.125 87.5302 40.585C87.2802 41.045 87.1552 41.605 87.1552 42.265C87.1552 42.935 87.2752 43.5 87.5152 43.96C87.7652 44.42 88.0952 44.765 88.5052 44.995C88.9152 45.215 89.3652 45.325 89.8552 45.325ZM97.53 39.295V44.14C97.53 44.54 97.615 44.825 97.785 44.995C97.955 45.155 98.25 45.235 98.67 45.235H99.675V46.39H98.445C97.685 46.39 97.115 46.215 96.735 45.865C96.355 45.515 96.165 44.94 96.165 44.14V39.295H95.1V38.17H96.165V36.1H97.53V38.17H99.675V39.295H97.53ZM100.819 42.25C100.819 41.41 100.989 40.675 101.329 40.045C101.669 39.405 102.134 38.91 102.724 38.56C103.324 38.21 103.989 38.035 104.719 38.035C105.439 38.035 106.064 38.19 106.594 38.5C107.124 38.81 107.519 39.2 107.779 39.67V38.17H109.159V46.39H107.779V44.86C107.509 45.34 107.104 45.74 106.564 46.06C106.034 46.37 105.414 46.525 104.704 46.525C103.974 46.525 103.314 46.345 102.724 45.985C102.134 45.625 101.669 45.12 101.329 44.47C100.989 43.82 100.819 43.08 100.819 42.25ZM107.779 42.265C107.779 41.645 107.654 41.105 107.404 40.645C107.154 40.185 106.814 39.835 106.384 39.595C105.964 39.345 105.499 39.22 104.989 39.22C104.479 39.22 104.014 39.34 103.594 39.58C103.174 39.82 102.839 40.17 102.589 40.63C102.339 41.09 102.214 41.63 102.214 42.25C102.214 42.88 102.339 43.43 102.589 43.9C102.839 44.36 103.174 44.715 103.594 44.965C104.014 45.205 104.479 45.325 104.989 45.325C105.499 45.325 105.964 45.205 106.384 44.965C106.814 44.715 107.154 44.36 107.404 43.9C107.654 43.43 107.779 42.885 107.779 42.265ZM112.831 35.29V46.39H111.466V35.29H112.831ZM125.066 35.935V37.045H120.521V40.57H124.211V41.68H120.521V46.39H119.156V35.935H125.066ZM128.08 35.29V46.39H126.715V35.29H128.08ZM129.896 42.25C129.896 41.41 130.066 40.675 130.406 40.045C130.746 39.405 131.211 38.91 131.801 38.56C132.401 38.21 133.066 38.035 133.796 38.035C134.516 38.035 135.141 38.19 135.671 38.5C136.201 38.81 136.596 39.2 136.856 39.67V38.17H138.236V46.39H136.856V44.86C136.586 45.34 136.181 45.74 135.641 46.06C135.111 46.37 134.491 46.525 133.781 46.525C133.051 46.525 132.391 46.345 131.801 45.985C131.211 45.625 130.746 45.12 130.406 44.47C130.066 43.82 129.896 43.08 129.896 42.25ZM136.856 42.265C136.856 41.645 136.731 41.105 136.481 40.645C136.231 40.185 135.891 39.835 135.461 39.595C135.041 39.345 134.576 39.22 134.066 39.22C133.556 39.22 133.091 39.34 132.671 39.58C132.251 39.82 131.916 40.17 131.666 40.63C131.416 41.09 131.291 41.63 131.291 42.25C131.291 42.88 131.416 43.43 131.666 43.9C131.916 44.36 132.251 44.715 132.671 44.965C133.091 45.205 133.556 45.325 134.066 45.325C134.576 45.325 135.041 45.205 135.461 44.965C135.891 44.715 136.231 44.36 136.481 43.9C136.731 43.43 136.856 42.885 136.856 42.265ZM142.208 39.295V44.14C142.208 44.54 142.293 44.825 142.463 44.995C142.633 45.155 142.928 45.235 143.348 45.235H144.353V46.39H143.123C142.363 46.39 141.793 46.215 141.413 45.865C141.033 45.515 140.843 44.94 140.843 44.14V39.295H139.778V38.17H140.843V36.1H142.208V38.17H144.353V39.295H142.208ZM153.321 46.495C152.631 46.495 152.011 46.375 151.461 46.135C150.921 45.885 150.496 45.545 150.186 45.115C149.876 44.675 149.716 44.17 149.706 43.6H151.161C151.211 44.09 151.411 44.505 151.761 44.845C152.121 45.175 152.641 45.34 153.321 45.34C153.971 45.34 154.481 45.18 154.851 44.86C155.231 44.53 155.421 44.11 155.421 43.6C155.421 43.2 155.311 42.875 155.091 42.625C154.871 42.375 154.596 42.185 154.266 42.055C153.936 41.925 153.491 41.785 152.931 41.635C152.241 41.455 151.686 41.275 151.266 41.095C150.856 40.915 150.501 40.635 150.201 40.255C149.911 39.865 149.766 39.345 149.766 38.695C149.766 38.125 149.911 37.62 150.201 37.18C150.491 36.74 150.896 36.4 151.416 36.16C151.946 35.92 152.551 35.8 153.231 35.8C154.211 35.8 155.011 36.045 155.631 36.535C156.261 37.025 156.616 37.675 156.696 38.485H155.196C155.146 38.085 154.936 37.735 154.566 37.435C154.196 37.125 153.706 36.97 153.096 36.97C152.526 36.97 152.061 37.12 151.701 37.42C151.341 37.71 151.161 38.12 151.161 38.65C151.161 39.03 151.266 39.34 151.476 39.58C151.696 39.82 151.961 40.005 152.271 40.135C152.591 40.255 153.036 40.395 153.606 40.555C154.296 40.745 154.851 40.935 155.271 41.125C155.691 41.305 156.051 41.59 156.351 41.98C156.651 42.36 156.801 42.88 156.801 43.54C156.801 44.05 156.666 44.53 156.396 44.98C156.126 45.43 155.726 45.795 155.196 46.075C154.666 46.355 154.041 46.495 153.321 46.495ZM160.174 39.685C160.444 39.215 160.844 38.825 161.374 38.515C161.914 38.195 162.539 38.035 163.249 38.035C163.979 38.035 164.639 38.21 165.229 38.56C165.829 38.91 166.299 39.405 166.639 40.045C166.979 40.675 167.149 41.41 167.149 42.25C167.149 43.08 166.979 43.82 166.639 44.47C166.299 45.12 165.829 45.625 165.229 45.985C164.639 46.345 163.979 46.525 163.249 46.525C162.549 46.525 161.929 46.37 161.389 46.06C160.859 45.74 160.454 45.345 160.174 44.875V50.29H158.809V38.17H160.174V39.685ZM165.754 42.25C165.754 41.63 165.629 41.09 165.379 40.63C165.129 40.17 164.789 39.82 164.359 39.58C163.939 39.34 163.474 39.22 162.964 39.22C162.464 39.22 161.999 39.345 161.569 39.595C161.149 39.835 160.809 40.19 160.549 40.66C160.299 41.12 160.174 41.655 160.174 42.265C160.174 42.885 160.299 43.43 160.549 43.9C160.809 44.36 161.149 44.715 161.569 44.965C161.999 45.205 162.464 45.325 162.964 45.325C163.474 45.325 163.939 45.205 164.359 44.965C164.789 44.715 165.129 44.36 165.379 43.9C165.629 43.43 165.754 42.88 165.754 42.25ZM168.436 42.25C168.436 41.41 168.606 40.675 168.946 40.045C169.286 39.405 169.751 38.91 170.341 38.56C170.941 38.21 171.606 38.035 172.336 38.035C173.056 38.035 173.681 38.19 174.211 38.5C174.741 38.81 175.136 39.2 175.396 39.67V38.17H176.776V46.39H175.396V44.86C175.126 45.34 174.721 45.74 174.181 46.06C173.651 46.37 173.031 46.525 172.321 46.525C171.591 46.525 170.931 46.345 170.341 45.985C169.751 45.625 169.286 45.12 168.946 44.47C168.606 43.82 168.436 43.08 168.436 42.25ZM175.396 42.265C175.396 41.645 175.271 41.105 175.021 40.645C174.771 40.185 174.431 39.835 174.001 39.595C173.581 39.345 173.116 39.22 172.606 39.22C172.096 39.22 171.631 39.34 171.211 39.58C170.791 39.82 170.456 40.17 170.206 40.63C169.956 41.09 169.831 41.63 169.831 42.25C169.831 42.88 169.956 43.43 170.206 43.9C170.456 44.36 170.791 44.715 171.211 44.965C171.631 45.205 172.096 45.325 172.606 45.325C173.116 45.325 173.581 45.205 174.001 44.965C174.431 44.715 174.771 44.36 175.021 43.9C175.271 43.43 175.396 42.885 175.396 42.265ZM178.573 42.265C178.573 41.415 178.743 40.675 179.083 40.045C179.423 39.405 179.893 38.91 180.493 38.56C181.103 38.21 181.798 38.035 182.578 38.035C183.588 38.035 184.418 38.28 185.068 38.77C185.728 39.26 186.163 39.94 186.373 40.81H184.903C184.763 40.31 184.488 39.915 184.078 39.625C183.678 39.335 183.178 39.19 182.578 39.19C181.798 39.19 181.168 39.46 180.688 40C180.208 40.53 179.968 41.285 179.968 42.265C179.968 43.255 180.208 44.02 180.688 44.56C181.168 45.1 181.798 45.37 182.578 45.37C183.178 45.37 183.678 45.23 184.078 44.95C184.478 44.67 184.753 44.27 184.903 43.75H186.373C186.153 44.59 185.713 45.265 185.053 45.775C184.393 46.275 183.568 46.525 182.578 46.525C181.798 46.525 181.103 46.35 180.493 46C179.893 45.65 179.423 45.155 179.083 44.515C178.743 43.875 178.573 43.125 178.573 42.265ZM195.694 41.965C195.694 42.225 195.679 42.5 195.649 42.79H189.079C189.129 43.6 189.404 44.235 189.904 44.695C190.414 45.145 191.029 45.37 191.749 45.37C192.339 45.37 192.829 45.235 193.219 44.965C193.619 44.685 193.899 44.315 194.059 43.855H195.529C195.309 44.645 194.869 45.29 194.209 45.79C193.549 46.28 192.729 46.525 191.749 46.525C190.969 46.525 190.269 46.35 189.649 46C189.039 45.65 188.559 45.155 188.209 44.515C187.859 43.865 187.684 43.115 187.684 42.265C187.684 41.415 187.854 40.67 188.194 40.03C188.534 39.39 189.009 38.9 189.619 38.56C190.239 38.21 190.949 38.035 191.749 38.035C192.529 38.035 193.219 38.205 193.819 38.545C194.419 38.885 194.879 39.355 195.199 39.955C195.529 40.545 195.694 41.215 195.694 41.965ZM194.284 41.68C194.284 41.16 194.169 40.715 193.939 40.345C193.709 39.965 193.394 39.68 192.994 39.49C192.604 39.29 192.169 39.19 191.689 39.19C190.999 39.19 190.409 39.41 189.919 39.85C189.439 40.29 189.164 40.9 189.094 41.68H194.284Z" fill="#AAAAAA"/>
</svg>
